<svg style="position: absolute; width: 0; height: 0; overflow: hidden;" version="1.1" xmlns="http://www.w3.org/2000/svg">
<defs>
<symbol id="icon-chat" viewBox="0 0 32 32">
<title>chat</title>
<path fill="#fff" style="fill: var(--color1, #fff)" d="M29.457 22.989c1.665-2.324 2.543-5.013 2.543-7.789 0-7.94-7.178-14.4-16-14.4s-16 6.46-16 14.4 7.178 14.4 16 14.4c2.273 0 4.468-0.421 6.53-1.252 3.629 2.094 8.646 2.817 8.863 2.847 0.025 0.004 0.050 0.005 0.075 0.005 0.199 0 0.386-0.112 0.477-0.295 0.102-0.205 0.062-0.453-0.1-0.615-1.227-1.227-2.072-3.815-2.387-7.301z"></path>
</symbol>
<symbol id="icon-note" viewBox="0 0 32 32">
<title>note</title>
<path fill="#fff" style="fill: var(--color1, #fff)" d="M10.486 5.605v16.084c-0.845-0.518-1.835-0.822-2.899-0.822-3.074 0-5.567 2.493-5.567 5.566s2.493 5.568 5.568 5.568c3.072 0 5.565-2.491 5.565-5.566v-14.999l14.162-4.072v9.522c-0.846-0.518-1.835-0.822-2.899-0.822-3.075 0-5.568 2.493-5.568 5.563 0 3.074 2.491 5.568 5.567 5.568 2.896 0 5.274-2.215 5.538-5.044h0.027v-22.152l-19.494 5.605z"></path>
</symbol>
<symbol id="icon-wrench" viewBox="0 0 32 32">
<title>wrench</title>
<path fill="#fff" style="fill: var(--color1, #fff)" d="M29.593 19.031c-2.145-2.146-4.904-2.912-7.499-2.117l-7.008-7.008c0.794-2.596 0.028-5.354-2.117-7.5-1.862-1.862-4.087-2.63-6.802-2.35-0.389 0.040-0.72 0.301-0.851 0.669-0.132 0.368-0.038 0.779 0.238 1.055l4.162 4.164-0.674 3.1-3.1 0.673-4.161-4.161c-0.277-0.277-0.688-0.37-1.057-0.239s-0.629 0.462-0.668 0.85c-0.281 2.716 0.488 4.94 2.35 6.802 2.145 2.146 4.904 2.912 7.499 2.117l7.008 7.008c-0.794 2.596-0.029 5.354 2.117 7.5 1.862 1.862 4.087 2.631 6.802 2.351 0.389-0.040 0.721-0.3 0.851-0.669 0.131-0.368 0.038-0.779-0.238-1.056l-4.161-4.162 0.673-3.099 3.101-0.674 4.162 4.162c0.276 0.277 0.687 0.369 1.056 0.238 0.145-0.051 0.273-0.134 0.377-0.238 0.162-0.161 0.267-0.376 0.292-0.612 0.28-2.715-0.488-4.941-2.35-6.802z"></path>
</symbol>
</defs>
</svg>
