<svg xmlns="http://www.w3.org/2000/svg" width="512" height="512" viewBox="0 0 88.586 88.586"><path d="M81.924 52.684c-5.938-5.94-13.576-8.06-20.76-5.86l-19.4-19.4c2.197-7.186.078-14.822-5.86-20.762C30.75 1.508 24.59-.62 17.074.156c-1.077.11-1.994.832-2.355 1.853-.365 1.02-.106 2.156.66 2.92L26.9 16.455l-1.866 8.582-8.582 1.864-11.52-11.52c-.767-.768-1.904-1.024-2.925-.662-1.022.36-1.74 1.278-1.85 2.354-.777 7.518 1.35 13.675 6.505 18.83 5.938 5.94 13.575 8.06 20.76 5.86l19.4 19.4c-2.197 7.187-.08 14.822 5.86 20.762 5.155 5.154 11.314 7.283 18.83 6.507 1.077-.11 1.995-.83 2.355-1.853.364-1.02.106-2.157-.66-2.922l-11.52-11.523 1.863-8.58 8.584-1.866 11.522 11.522c.765.766 1.903 1.022 2.923.66.4-.142.755-.37 1.043-.66.448-.447.74-1.042.808-1.695.776-7.517-1.35-13.677-6.506-18.83z" fill="#FFF"/></svg>